<svg width="375" height="814" viewBox="0 0 375 814" fill="none" xmlns="http://www.w3.org/2000/svg">
<rect y="2" width="375" height="812" fill="#70B9BE"/>
<path d="M501.913 -151.589C489.494 -148.136 462.665 -127.229 454.699 -71.2228C444.741 -1.21546 422.968 142.394 333.75 109.969C244.531 77.5429 192.773 18.9227 219.818 -6.95958C246.862 -32.8419 304.539 23.1429 241.077 99.6701C177.615 176.197 41.4773 166.219 -14.6871 63.1916" stroke="#3DA0A7"/>
<path d="M518 598.746C532.081 557.021 534.714 464.325 479.812 427.03C424.909 389.734 365.701 390.451 291 427.03C215.5 464 120.5 457 140 389.246C166.56 296.959 178.5 260.746 112 283.246C45.5 305.746 74.4765 245.629 -1.02476e-06 255.746C-59.5812 263.839 -120 352.746 -171 248.746" stroke="#3DA0A7"/>
</svg>
